<svg xmlns="http://www.w3.org/2000/svg" width="42.882" height="41.091" viewBox="0 0 42.882 41.091">
  <g id="icon_2_clinic" data-name="icon/2/clinic" transform="translate(0.5 0.5)">
    <rect id="Rectangle" width="41.882" height="40.091" transform="translate(0)" fill="#6e6fd8" stroke="rgba(0,0,0,0)" stroke-width="1" opacity="0"/>
    <path id="Shape" d="M40.958,38.086H.924A.877.877,0,0,1,.8,36.336l.125-.007H2.771V2.051A2.1,2.1,0,0,1,4.75.007L4.928,0H24.637a2.127,2.127,0,0,1,2.149,1.883l.007.169v13.2l.153-.015.155-.005h9.855A2.127,2.127,0,0,1,39.1,17.117l.007.168V36.329h1.848a.88.88,0,1,1,0,1.757ZM27.1,16.993a.3.3,0,0,0-.3.226l-.008.067V36.329h10.47V17.285a.29.29,0,0,0-.16-.257L37.026,17l-.071-.007ZM11.087,22.266h7.391a2.127,2.127,0,0,1,2.149,1.883l.007.168V36.329h4.312V2.051a.291.291,0,0,0-.161-.258l-.076-.028-.071-.007H4.928a.306.306,0,0,0-.3.226l-.008.068V36.329H8.931V24.317a2.105,2.105,0,0,1,1.979-2.044Zm0,1.757a.3.3,0,0,0-.3.226l-.008.067V36.329h8.007V24.317a.291.291,0,0,0-.161-.257l-.076-.028-.071-.008Zm4.682-5.982h-2.01A1.725,1.725,0,0,1,12,16.358V14.915a.246.246,0,0,0-.251-.241H10.24A1.725,1.725,0,0,1,8.481,12.99V11.065A1.725,1.725,0,0,1,10.24,9.381h1.508A.246.246,0,0,0,12,9.141V7.7a1.725,1.725,0,0,1,1.759-1.684h2.01A1.725,1.725,0,0,1,17.528,7.7V9.14a.247.247,0,0,0,.252.242h1.508a1.724,1.724,0,0,1,1.758,1.684V12.99a1.724,1.724,0,0,1-1.758,1.684H17.779a.247.247,0,0,0-.252.241v1.443A1.725,1.725,0,0,1,15.768,18.041ZM10.24,10.825a.247.247,0,0,0-.252.241V12.99a.247.247,0,0,0,.252.241h1.508a1.724,1.724,0,0,1,1.758,1.684v1.443a.246.246,0,0,0,.252.24h2.01a.246.246,0,0,0,.252-.24V14.915a1.725,1.725,0,0,1,1.759-1.684h1.508a.246.246,0,0,0,.251-.241V11.065a.247.247,0,0,0-.252-.241H17.778A1.727,1.727,0,0,1,16.02,9.14V7.7a.247.247,0,0,0-.252-.241h-2.01a.247.247,0,0,0-.252.241V9.141a1.724,1.724,0,0,1-1.758,1.683Z" transform="translate(0 1.002)" fill="#6e6fd8" stroke="rgba(0,0,0,0)" stroke-width="1"/>
  </g>
</svg>
