<svg id="icon_2_articles" data-name="icon/2/articles" xmlns="http://www.w3.org/2000/svg" width="40" height="40" viewBox="0 0 40 40">
  <rect id="Rectangle" width="40" height="40" transform="translate(0)" fill="#6e6fd8" opacity="0"/>
  <path id="Combined_Shape" data-name="Combined Shape" d="M9.25,34.614,5,37.042V28.75H6.5v5.706l2.75-1.57L12,34.457V28.75h1.5v8.293ZM31.5,33.5H15.4a.75.75,0,1,1,0-1.5H30V27.5H3.825A2.249,2.249,0,0,0,3.666,32a.164.164,0,0,1,.159.165v.59a.314.314,0,0,1-.318.316.306.306,0,0,1-.218-.091L0,29.75v-24A5.749,5.749,0,0,1,5.53,0l.22,0H31.5V33.5h0ZM1.5,5.544l0,.206V26.77A3.855,3.855,0,0,1,3.629,26l.2,0H23.75V1.5h-18A4.25,4.25,0,0,0,1.5,5.544ZM30,26V1.5H25.25V26Z" transform="translate(4 1)" fill="#6e6fd8"/>
</svg>
