<svg id="icon_2_labs_2" data-name="icon/2/labs 2" xmlns="http://www.w3.org/2000/svg" width="40" height="40" viewBox="0 0 40 40">
  <rect id="Rectangle" width="40" height="40" fill="#6e6fd8" opacity="0"/>
  <path id="Combined_Shape" data-name="Combined Shape" d="M4.75,35.5A4.75,4.75,0,0,1,.734,28.213L8.743,15.531V1.5h-1.5a.75.75,0,0,1,0-1.5h16.5a.75.75,0,0,1,0,1.5h-1.5V15.533l8.009,12.68a4.743,4.743,0,0,1-1.288,6.425l-.192.128a4.745,4.745,0,0,1-2.537.733ZM2,29.014A3.25,3.25,0,0,0,4.75,34H26.235a3.25,3.25,0,0,0,2.749-4.986L24.711,22.25H6.275ZM23.764,20.75l-3.021-4.783V1.5h-10.5V5.75h3.5a.75.75,0,0,1,0,1.5h-3.5v4.5h3.5a.75.75,0,1,1,0,1.5h-3.5v2.717L7.222,20.75Z" transform="translate(5 2)" fill="#6e6fd8"/>
</svg>
