<svg xmlns="http://www.w3.org/2000/svg" width="42.404" height="39.348" viewBox="0 0 42.404 39.348">
  <g id="insurance-clipboard-document-report-security" transform="translate(-2 -1.991)">
    <path id="Tracé_1476" data-name="Tracé 1476" d="M43.283,26.7a11.987,11.987,0,0,1-6.785-2.1l-1.7-1.18-1.7,1.18c-.141.1-.283.19-.424.282V10.311A1.369,1.369,0,0,0,31.269,9H24.909v2.623h4.947v14.55a11.9,11.9,0,0,1-3.534.531h-.707V35.74a4.8,4.8,0,0,0,.226,1.456,5.317,5.317,0,0,0,2.785,3.18l.226.1H5.827V11.623h4.947V9H4.413A1.369,1.369,0,0,0,3,10.311V41.785A1.369,1.369,0,0,0,4.413,43.1H31.269a1.4,1.4,0,0,0,1.357-.957L34.8,43.1l6.177-2.721A5.194,5.194,0,0,0,43.99,35.74V26.7Zm-2.12,9.036a2.6,2.6,0,0,1-1.463,2.3l-4.9,2.157-4.9-2.157a2.6,2.6,0,0,1-1.463-2.295V29.176A14.8,14.8,0,0,0,34.8,26.7a14.8,14.8,0,0,0,6.361,2.472Z" transform="translate(-0.293 -2.413)" fill="#6e6fd8"/>
    <path id="Tracé_1477" data-name="Tracé 1477" d="M20.827,25.868h2.827V23.246h2.827V20.623H23.654V18H20.827v2.623H18v2.623h2.827Z" transform="translate(-4.692 -5.512)" fill="#6e6fd8"/>
    <ellipse id="Ellipse_322" data-name="Ellipse 322" cx="1.413" cy="1.311" rx="1.413" ry="1.311" transform="translate(16.135 4.62)" fill="#6e6fd8"/>
    <g id="Groupe_1637" data-name="Groupe 1637" transform="translate(2 1.991)">
      <path id="Tracé_1478" data-name="Tracé 1478" d="M23.12,5A2.048,2.048,0,0,0,21,6.967a2.126,2.126,0,0,0,4.24,0A2.048,2.048,0,0,0,23.12,5Zm0,2.623a.658.658,0,1,1,.707-.656A.683.683,0,0,1,23.12,7.623Z" transform="translate(-7.572 -3.027)" fill="#6e6fd8"/>
      <path id="Tracé_1479" data-name="Tracé 1479" d="M11,33h2.827v1.311H11Z" transform="translate(-4.639 -12.667)" fill="#6e6fd8"/>
      <path id="Tracé_1480" data-name="Tracé 1480" d="M17,33H27.6v1.311H17Z" transform="translate(-6.399 -12.667)" fill="#6e6fd8"/>
      <path id="Tracé_1481" data-name="Tracé 1481" d="M11,39h2.827v1.311H11Z" transform="translate(-4.639 -14.733)" fill="#6e6fd8"/>
      <path id="Tracé_1482" data-name="Tracé 1482" d="M11,45h2.827v1.311H11Z" transform="translate(-4.639 -16.799)" fill="#6e6fd8"/>
      <path id="Tracé_1483" data-name="Tracé 1483" d="M11,51h2.827v1.311H11Z" transform="translate(-4.639 -18.865)" fill="#6e6fd8"/>
      <path id="Tracé_1484" data-name="Tracé 1484" d="M43.7,23.635H42.99a11.239,11.239,0,0,1-6.361-1.967l-1.7-1.18a.743.743,0,0,0-.848,0l-.989.688V7.9a2.054,2.054,0,0,0-2.12-1.967H25.195A2.123,2.123,0,0,0,23.2,4.62H21.548a4.358,4.358,0,0,0-8,0H11.894A2.123,2.123,0,0,0,9.9,5.931H4.12A2.054,2.054,0,0,0,2,7.9V39.372a2.054,2.054,0,0,0,2.12,1.967H30.976a2.2,2.2,0,0,0,1.661-.754l1.569.688a.737.737,0,0,0,.608,0l6.205-2.734A5.834,5.834,0,0,0,44.4,33.327V24.291a.683.683,0,0,0-.707-.656ZM25.322,7.243h5.654a.683.683,0,0,1,.707.656V22.121a11.085,11.085,0,0,1-1.413.688V9.21a.683.683,0,0,0-.707-.656h-4.24ZM11.187,6.587a.683.683,0,0,1,.707-.656h2.191a.688.688,0,0,0,.693-.525,2.877,2.877,0,0,1,5.541,0,.688.688,0,0,0,.693.525H23.2a.683.683,0,0,1,.707.656V9.21H11.187Zm-.707,3.934H24.615a.683.683,0,0,0,.707-.656h3.534v13.4a11.4,11.4,0,0,1-2.827.367h-.707a.683.683,0,0,0-.707.656v1.967H12.6V27.57H24.615v2.623H12.6V31.5H24.615v1.823a6.01,6.01,0,0,0,.057.8H12.6v1.311H25.046a5.883,5.883,0,0,0,1.35,1.967H6.24V9.865H9.774a.683.683,0,0,0,.707.656Zm20.5,29.507H4.12a.683.683,0,0,1-.707-.656V7.9a.683.683,0,0,1,.707-.656H9.774V8.554H5.534a.683.683,0,0,0-.707.656V38.061a.683.683,0,0,0,.707.656H28.4l2.841,1.252A.758.758,0,0,1,30.976,40.028Zm12.014-6.7a4.525,4.525,0,0,1-2.608,4.039l-5.873,2.59-5.859-2.583a4.54,4.54,0,0,1-2.622-4.046v-8.38a12.717,12.717,0,0,0,7.209-2.229l1.272-.885,1.272.885a12.717,12.717,0,0,0,7.209,2.229Z" transform="translate(-2 -1.991)" fill="#6e6fd8"/>
      <path id="Tracé_1485" data-name="Tracé 1485" d="M26.187,19.623h-2.12V17.656A.683.683,0,0,0,23.361,17H20.534a.683.683,0,0,0-.707.656v1.967h-2.12a.683.683,0,0,0-.707.656V22.9a.683.683,0,0,0,.707.656h2.12v1.967a.683.683,0,0,0,.707.656h2.827a.683.683,0,0,0,.707-.656V23.557h2.12a.683.683,0,0,0,.707-.656V20.279A.683.683,0,0,0,26.187,19.623Zm-.707,2.623h-2.12a.683.683,0,0,0-.707.656v1.967H21.24V22.9a.683.683,0,0,0-.707-.656h-2.12V20.934h2.12a.683.683,0,0,0,.707-.656V18.311h1.413v1.967a.683.683,0,0,0,.707.656h2.12Z" transform="translate(-6.399 -7.159)" fill="#6e6fd8"/>
      <path id="Tracé_1486" data-name="Tracé 1486" d="M51.534,37.478a14.033,14.033,0,0,1-6.043-2.347.743.743,0,0,0-.848,0A14.033,14.033,0,0,1,38.6,37.478a.678.678,0,0,0-.6.649V44.69a3.245,3.245,0,0,0,1.823,2.865l.042.02,4.9,2.157a.737.737,0,0,0,.608,0l4.94-2.177a3.253,3.253,0,0,0,1.823-2.865V38.127a.678.678,0,0,0-.6-.649Zm-.813,7.213a1.92,1.92,0,0,1-1.06,1.7l-4.594,2.026L40.488,46.4a1.947,1.947,0,0,1-1.074-1.711V38.678a15.555,15.555,0,0,0,5.654-2.216,15.555,15.555,0,0,0,5.654,2.216Z" transform="translate(-12.558 -13.355)" fill="#6e6fd8"/>
      <path id="Tracé_1487" data-name="Tracé 1487" d="M43.292,45.572l-1,.927,2.12,1.967a.746.746,0,0,0,1,0l5.654-5.246-1-.927-5.154,4.782Z" transform="translate(-13.817 -15.867)" fill="#6e6fd8"/>
    </g>
  </g>
</svg>
