<svg xmlns="http://www.w3.org/2000/svg" width="52.932" height="42.857" viewBox="0 0 52.932 42.857">
  <g id="pharmacy" transform="translate(-0.001)">
    <g id="Groupe_1639" data-name="Groupe 1639" transform="translate(0.001)">
      <g id="Groupe_1638" data-name="Groupe 1638">
        <path id="Tracé_1488" data-name="Tracé 1488" d="M52.534,4.752a1.228,1.228,0,0,0-.889-.15L46.726,5.614a12.026,12.026,0,0,1-2.418.245H37.09c-2.342,0-4.3,1.36-4.651,3.235a2.513,2.513,0,0,1-2.607,1.813h-.264V9.158a4.841,4.841,0,0,0,2.981-4.234C32.549,2.209,29.821,0,26.467,0s-6.082,2.209-6.082,4.924a4.841,4.841,0,0,0,2.981,4.234v1.748H23.1a2.513,2.513,0,0,1-2.607-1.813c-.353-1.874-2.309-3.235-4.651-3.235H8.626a12.018,12.018,0,0,1-2.418-.245L1.29,4.6a1.229,1.229,0,0,0-.889.15.792.792,0,0,0-.4.661A6.108,6.108,0,0,0,2.218,10a6.149,6.149,0,0,0,3.055,5.014l.973,1.052A12.977,12.977,0,0,0,15.7,19.9a13.467,13.467,0,0,0,7.667-2.289v2.985h-.927c-3.686,0-6.685,2.428-6.685,5.413a4.633,4.633,0,0,0,.826,2.609,1.093,1.093,0,0,0,.906.433,1.224,1.224,0,0,0,.5-.1.761.761,0,0,0,.407-1.137,3.2,3.2,0,0,1-.57-1.8c0-2.062,2.071-3.739,4.618-3.739h.927v7.478H20.936c-2.727,0-4.945,1.8-4.945,4s2.218,4,4.945,4H23.81a18.722,18.722,0,0,0,1.719,4.6,1.063,1.063,0,0,0,.95.507h0a1.062,1.062,0,0,0,.95-.51l.02-.039a18.7,18.7,0,0,0,1.682-4.557h1.175a1.952,1.952,0,0,1,2.119,1.716,1.952,1.952,0,0,1-2.119,1.716h-.07a.856.856,0,1,0,0,1.674h.07c2.309,0,4.187-1.521,4.187-3.39s-1.878-3.39-4.187-3.39h-.881a17.738,17.738,0,0,0,.14-2.221V31.417h.689c3.686,0,6.685-2.428,6.685-5.413s-3-5.413-6.685-5.413h-.689V17.606A13.467,13.467,0,0,0,37.235,19.9a12.977,12.977,0,0,0,9.453-3.832l.973-1.052A6.148,6.148,0,0,0,50.716,10a6.108,6.108,0,0,0,2.217-4.583A.793.793,0,0,0,52.534,4.752ZM22.547,15.942A10.952,10.952,0,0,1,15.7,18.221a11.259,11.259,0,0,1-6.258-1.847c.259.021.522.032.788.032H11.96a.951.951,0,0,0,1.034-.837.951.951,0,0,0-1.034-.837H10.229a5.985,5.985,0,0,1-5.635-3.281,9.921,9.921,0,0,0,3.762.728h2.138a.951.951,0,0,0,1.034-.837.951.951,0,0,0-1.034-.837H8.356c-3,0-5.512-1.708-6.138-3.984l3.48.716a14.543,14.543,0,0,0,2.927.3h7.218a2.513,2.513,0,0,1,2.607,1.813c.353,1.874,2.309,3.235,4.651,3.235h.264v2.706ZM20.936,36.077a2.65,2.65,0,0,1-2.877-2.33,2.65,2.65,0,0,1,2.877-2.33h2.429v2.389a17.749,17.749,0,0,0,.146,2.271ZM27.5,33.856a16.437,16.437,0,0,1-1.025,5.71,16.437,16.437,0,0,1-1.043-5.76V31.417H27.5v2.439Zm0-4.113H25.433V9.776a7.391,7.391,0,0,0,2.068,0Zm2.757-7.478c2.546,0,4.618,1.677,4.618,3.739s-2.071,3.739-4.618,3.739h-.689V22.265h.689ZM26.467,8.175c-2.214,0-4.015-1.458-4.015-3.25s1.8-3.25,4.015-3.25,4.015,1.458,4.015,3.25S28.681,8.175,26.467,8.175ZM44.577,10.5H42.439a.951.951,0,0,0-1.034.837.951.951,0,0,0,1.034.837h2.138a9.92,9.92,0,0,0,3.762-.728A5.986,5.986,0,0,1,42.7,14.732H40.973a.951.951,0,0,0-1.034.837.951.951,0,0,0,1.034.837H42.7c.266,0,.529-.011.788-.032a11.259,11.259,0,0,1-6.258,1.847,10.952,10.952,0,0,1-6.848-2.279l-.819-.655V12.581h.264c2.342,0,4.3-1.36,4.651-3.235A2.513,2.513,0,0,1,37.09,7.533h7.218a14.545,14.545,0,0,0,2.927-.3l3.48-.716C50.089,8.8,47.575,10.5,44.577,10.5Z" transform="translate(-0.001)" fill="#6e6fd8"/>
      </g>
    </g>
    <g id="Groupe_1641" data-name="Groupe 1641" transform="translate(21.298 41.183)">
      <g id="Groupe_1640" data-name="Groupe 1640">
        <path id="Tracé_1489" data-name="Tracé 1489" d="M207.766,492.246a1.212,1.212,0,0,0-1.462,0,.729.729,0,0,0,0,1.183,1.211,1.211,0,0,0,1.462,0,.729.729,0,0,0,0-1.183Z" transform="translate(-206.001 -492.001)" fill="#6e6fd8"/>
      </g>
    </g>
  </g>
</svg>
